<?xml version="1.0" standalone="no"?>
<!DOCTYPE svg PUBLIC "-//W3C//DTD SVG 1.1//EN" "http://www.w3.org/Graphics/SVG/1.1/DTD/svg11.dtd">
<svg xmlns="http://www.w3.org/2000/svg" xmlns:xlink="http://www.w3.org/1999/xlink" id="Capa_1" data-name="Capa 1" width="115.29000854492188" height="115.29000091552734" viewBox="376.0799865722656 122.7699966430664 115.29000854492188 115.29000091552734">
    <defs>
        <style>
            .cls-1, .cls-2, .cls-3, .cls-4, .cls-5, .cls-6, .cls-7, .cls-8, .cls-9, .cls-10, .cls-11
            {
            stroke: #fff;
            stroke-miterlimit: 10;
            }

            .cls-1, .cls-4, .cls-5, .cls-12 {
            fill: #ffe26a;
            }

            .cls-2, .cls-6 {
            fill: none;
            }

            .cls-13 {
            fill: url(#Degradado_sin_nombre_189-2);
            }

            .cls-13, .cls-14, .cls-15, .cls-16, .cls-17, .cls-18, .cls-19, .cls-20, .cls-21,
            .cls-12, .cls-22, .cls-23, .cls-24, .cls-25, .cls-26, .cls-27, .cls-28, .cls-29, .cls-30
            {
            stroke-width: 0px;
            }

            .cls-3 {
            fill: #50b265;
            }

            .cls-3, .cls-4, .cls-9 {
            stroke-width: .75px;
            }

            .cls-14 {
            fill: url(#Degradado_sin_nombre_189-4);
            }

            .cls-15 {
            fill: url(#Degradado_sin_nombre_157-3);
            }

            .cls-5, .cls-6 {
            stroke-width: .5px;
            }

            .cls-16 {
            fill: url(#Degradado_sin_nombre_114);
            }

            .cls-17 {
            fill: #fff;
            }

            .cls-18 {
            fill: url(#Degradado_sin_nombre_109-2);
            }

            .cls-7, .cls-9 {
            fill: #d83e8f;
            }

            .cls-19 {
            fill: url(#Degradado_sin_nombre_157-5);
            }

            .cls-20 {
            fill: url(#Degradado_sin_nombre_157-4);
            }

            .cls-21 {
            fill: url(#Degradado_sin_nombre_109-3);
            }

            .cls-22 {
            fill: url(#Degradado_sin_nombre_189-3);
            }

            .cls-23 {
            fill: url(#Degradado_sin_nombre_189-5);
            }

            .cls-8, .cls-24 {
            fill: #d9ece7;
            }

            .cls-10 {
            fill: #fbba41;
            }

            .cls-11 {
            fill: #41b493;
            }

            .cls-25 {
            fill: #2e2c7e;
            }

            .cls-26 {
            fill: url(#Degradado_sin_nombre_109);
            }

            .cls-27 {
            fill: url(#Degradado_sin_nombre_189);
            }

            .cls-28 {
            fill: url(#Degradado_sin_nombre_157);
            }

            .cls-29 {
            fill: url(#Degradado_sin_nombre_109-4);
            }

            .cls-30 {
            fill: url(#Degradado_sin_nombre_157-2);
            }
        </style>
        <linearGradient id="Degradado_sin_nombre_157" data-name="Degradado sin nombre 157" x1="242.07" y1="57.64" x2="357.36" y2="57.64" gradientUnits="userSpaceOnUse">
            <stop offset="0" stop-color="#0481c0"/>
            <stop offset="1" stop-color="#31b7eb"/>
        </linearGradient>
        <linearGradient id="Degradado_sin_nombre_189" data-name="Degradado sin nombre 189" x1="122.22" y1="180.79" x2="232.63" y2="180.79" gradientUnits="userSpaceOnUse">
            <stop offset="0" stop-color="#7c3b8f"/>
            <stop offset="1" stop-color="#a472af"/>
        </linearGradient>
        <linearGradient id="Degradado_sin_nombre_157-2" data-name="Degradado sin nombre 157" x1="122.22" y1="60.36" x2="232.63" y2="60.36" xlink:href="#Degradado_sin_nombre_157"/>
        <linearGradient id="Degradado_sin_nombre_189-2" data-name="Degradado sin nombre 189" x1=".02" y1="181.66" x2="110.43" y2="181.66" xlink:href="#Degradado_sin_nombre_189"/>
        <linearGradient id="Degradado_sin_nombre_157-3" data-name="Degradado sin nombre 157" x1="2.9" y1="60.36" x2="113.31" y2="60.36" xlink:href="#Degradado_sin_nombre_157"/>
        <linearGradient id="Degradado_sin_nombre_189-3" data-name="Degradado sin nombre 189" x1="242.07" y1="178.98" x2="357.36" y2="178.98" xlink:href="#Degradado_sin_nombre_189"/>
        <linearGradient id="Degradado_sin_nombre_109" data-name="Degradado sin nombre 109" x1="122.2" y1="308.86" x2="232.61" y2="308.86" gradientUnits="userSpaceOnUse">
            <stop offset="0" stop-color="#a068a8"/>
            <stop offset=".27" stop-color="#5b54a0"/>
            <stop offset=".3" stop-color="#5f55a0"/>
            <stop offset=".55" stop-color="#374d9c"/>
            <stop offset=".81" stop-color="#337cc0"/>
            <stop offset="1" stop-color="#41bcee"/>
        </linearGradient>
        <linearGradient id="Degradado_sin_nombre_109-2" data-name="Degradado sin nombre 109" x1="0" y1="309.72" x2="110.41" y2="309.72" xlink:href="#Degradado_sin_nombre_109"/>
        <linearGradient id="Degradado_sin_nombre_114" data-name="Degradado sin nombre 114" x1="244.51" y1="306.68" x2="354.92" y2="306.68" gradientUnits="userSpaceOnUse">
            <stop offset="0" stop-color="#a068a8"/>
            <stop offset=".3" stop-color="#5f55a0"/>
            <stop offset=".55" stop-color="#374d9c"/>
            <stop offset=".81" stop-color="#337cc0"/>
            <stop offset="1" stop-color="#41bcee"/>
        </linearGradient>
        <linearGradient id="Degradado_sin_nombre_157-4" data-name="Degradado sin nombre 157" x1="376.08" y1="59.08" x2="491.37" y2="59.08" xlink:href="#Degradado_sin_nombre_157"/>
        <linearGradient id="Degradado_sin_nombre_189-4" data-name="Degradado sin nombre 189" x1="376.08" y1="180.41" x2="491.37" y2="180.41" xlink:href="#Degradado_sin_nombre_189"/>
        <linearGradient id="Degradado_sin_nombre_109-3" data-name="Degradado sin nombre 109" x1="378.52" y1="308.11" x2="488.93" y2="308.11" xlink:href="#Degradado_sin_nombre_109"/>
        <linearGradient id="Degradado_sin_nombre_189-5" data-name="Degradado sin nombre 189" x1="185.43" y1="568.84" x2="295.84" y2="568.84" xlink:href="#Degradado_sin_nombre_189"/>
        <linearGradient id="Degradado_sin_nombre_157-5" data-name="Degradado sin nombre 157" x1="188.32" y1="447.54" x2="298.73" y2="447.54" xlink:href="#Degradado_sin_nombre_157"/>
        <linearGradient id="Degradado_sin_nombre_109-4" data-name="Degradado sin nombre 109" x1="185.41" y1="696.9" x2="295.82" y2="696.9" xlink:href="#Degradado_sin_nombre_109"/>
    </defs>
    <rect class="cls-14" x="376.08" y="122.77" width="115.29" height="115.29" />
    <circle class="cls-17" cx="406.82" cy="158.11" r="7.17"/>
    <circle class="cls-17" cx="427.2" cy="176.01" r="4.9"/>
    <circle class="cls-17" cx="445.96" cy="158.11" r="7.17"/>
    <path class="cls-12" d="m409.13,167.8c.62,4.19,3.7,20.05,13.84,15.19,1.25-.6,2.6-.98,3.99-1.02.08,0,.17,0,.26-.02,1.38-.12,2.77.05,4.07.53,3.09,1.12,8.95,1.09,12.33-12.61.27-1.09,1.25-1.82,2.38-1.83.9,0,2.02-.22,3.13-1.02.93-.67,2.25-.29,2.67.78,3.82,9.62,17.07,43.67,13.86,44.6-3.74,1.08-13.88-37.8-15.46-37.41s-6.69,30.17-3.74,37.43-10.14-6.52-6.1-22.66c4.04-16.14-7.19-2.07-7.48-.39l-.68,21.75c-.06,1.84-1.56,3.3-3.4,3.3h0c-1.93,0-3.48-1.6-3.4-3.53.28-7.04,1.22-21-4.43-23.39s-23.65-3.45-26.15,6.1c-2.5,9.55,18.08,18.7,19.16,19.98s-47.23-3.86-14.6-47.66c.52-.7,1.55-.77,2.14-.13,1.26,1.35,3.6,3.04,6.62,1.52.41-.21.91.03.98.49Z"/>
    <path class="cls-12" d="m421.64,200.4c.15-2.4.79-4.33,1.29-5.56,0,0,2.5-8.02-11.5-7.26l3.77,25.65s-1.73-16.34,1.22-15.21c2.95,1.14,3.63,15.21,6.13,15.21.16,0,.28-.04.39-.1,1.46-.96-1.7-6.39-1.29-12.72Zm-6.66-6.17c-1.97-1.14-.68-4.35-.68-4.35,12.71,2.08,2.65,5.49.68,4.35Z"/>
    <path class="cls-12" d="m474.02,191.78c-1.62-3.57-7.22-1.81-10.07-.51,0,0,2.92,18.54,4.06,19.35,1.14.81-.89-12.99,0-14.13.89-1.14,7.63-1.14,6.01-4.71Zm-6.49.38s2.02-2.47,4.22-.89c2.2,1.57-2.27,2.87-3,3.18-.73.32-1.22-2.29-1.22-2.29Z"/>
    <path class="cls-12" d="m485.23,193.24c-.87-3.83-6.71-3.22-9.76-2.52,0,0-.86,18.75.09,19.77.95,1.02,1.73-12.9,2.83-13.84,1.1-.93,7.7.42,6.83-3.41Zm-6.44-.93s2.47-2.01,4.32-.03c1.84,1.99-2.8,2.35-3.58,2.52-.78.16-.73-2.49-.73-2.49Z"/>
</svg>